<svg xmlns="http://www.w3.org/2000/svg" viewBox="0 0 128 128" fill="none">
  <rect width="100%" height="100%" rx="24" fill="#131923"/>
  <line x1="20.49" y1="31.26" x2="35.51" y2="36.74" stroke="#d7deea" stroke-width="1.1" opacity="0.42" stroke-linecap="round"/>
  <line x1="20.49" y1="56.74" x2="35.51" y2="51.26" stroke="#d7deea" stroke-width="1.1" opacity="0.42" stroke-linecap="round"/>
  <line x1="24.02" y1="80.94" x2="31.98" y2="67.06" stroke="#d7deea" stroke-width="1.1" opacity="0.42" stroke-linecap="round"/>
  <line x1="29.43" y1="101.87" x2="26.57" y2="86.13" stroke="#d7deea" stroke-width="1.1" opacity="0.42" stroke-linecap="round"/>
  <line x1="47.04" y1="26.06" x2="48.96" y2="41.94" stroke="#d7deea" stroke-width="1.1" opacity="0.42" stroke-linecap="round"/>
  <line x1="42.15" y1="48.55" x2="53.85" y2="59.45" stroke="#d7deea" stroke-width="1.1" opacity="0.42" stroke-linecap="round"/>
  <line x1="40.01" y1="73.60" x2="55.99" y2="74.40" stroke="#d7deea" stroke-width="1.1" opacity="0.42" stroke-linecap="round"/>
  <line x1="41.63" y1="98.84" x2="54.37" y2="89.16" stroke="#d7deea" stroke-width="1.1" opacity="0.42" stroke-linecap="round"/>
  <line x1="74.64" y1="29.54" x2="61.36" y2="38.46" stroke="#d7deea" stroke-width="1.1" opacity="0.42" stroke-linecap="round"/>
  <line x1="70.20" y1="46.31" x2="65.80" y2="61.69" stroke="#d7deea" stroke-width="1.1" opacity="0.42" stroke-linecap="round"/>
  <line x1="64.73" y1="66.70" x2="71.27" y2="81.30" stroke="#d7deea" stroke-width="1.1" opacity="0.42" stroke-linecap="round"/>
  <line x1="60.80" y1="90.52" x2="75.20" y2="97.48" stroke="#d7deea" stroke-width="1.1" opacity="0.42" stroke-linecap="round"/>
  <line x1="94.99" y1="37.89" x2="81.01" y2="30.11" stroke="#d7deea" stroke-width="1.1" opacity="0.42" stroke-linecap="round"/>
  <line x1="95.85" y1="52.48" x2="80.15" y2="55.52" stroke="#d7deea" stroke-width="1.1" opacity="0.42" stroke-linecap="round"/>
  <line x1="93.03" y1="67.78" x2="82.97" y2="80.22" stroke="#d7deea" stroke-width="1.1" opacity="0.42" stroke-linecap="round"/>
  <line x1="87.83" y1="86.00" x2="88.17" y2="102.00" stroke="#d7deea" stroke-width="1.1" opacity="0.42" stroke-linecap="round"/>
  <path d="M 23 80 C 40 62, 60 51, 81 51 C 91 51, 99 56, 105 66" stroke="#d7deea" stroke-width="1.6" stroke-linecap="round" stroke-linejoin="round" opacity="0.9"/>
  <path d="M 28 95 C 46 79, 61 71, 79 72 C 92 73, 100 81, 103 92" stroke="#d7deea" stroke-width="1.35" stroke-linecap="round" stroke-linejoin="round" opacity="0.58"/>
</svg>
