<svg xmlns="http://www.w3.org/2000/svg" viewBox="0 0 128 128" fill="none">
  <rect width="100%" height="100%" rx="24" fill="#131923"/>
  <path d="M 81.50 64.00 L 82.82 65.73 L 84.08 67.44 L 85.29 69.14 L 86.44 70.80 L 87.53 72.42 L 88.55 73.99 L 89.51 75.49 L 90.40 76.93 L 91.21 78.29 L 91.95 79.56 L 92.61 80.73 L 93.20 81.80 L 93.70 82.76 L 94.13 83.60 L 94.47 84.33 L 94.73 84.92 L 94.90 85.39 L 94.99 85.73 L 94.99 85.93 L 94.91 86.00 L 94.74 85.93 L 94.49 85.73 L 94.16 85.39 L 93.74 84.92 L 93.24 84.33 L 92.67 83.60 L 92.01 82.76 L 91.27 81.80 L 90.47 80.73 L 89.59 79.56 L 88.63 78.29 L 87.62 76.93 L 86.53 75.49 L 85.39 73.99 L 84.18 72.42 L 82.92 70.80 L 81.61 69.14 L 80.25 67.44 L 78.85 65.73 L 77.41 64.00 L 75.92 62.27 L 74.41 60.56 L 72.87 58.86 L 71.30 57.20 L 69.71 55.58 L 68.11 54.01 L 66.50 52.51 L 64.88 51.07 L 63.25 49.71 L 61.63 48.44 L 60.02 47.27 L 58.42 46.20 L 56.83 45.24 L 55.26 44.40 L 53.71 43.67 L 52.20 43.08 L 50.71 42.61 L 49.27 42.27 L 47.86 42.07 L 46.50 42.00 L 45.18 42.07 L 43.92 42.27 L 42.71 42.61 L 41.56 43.08 L 40.47 43.67 L 39.45 44.40 L 38.49 45.24 L 37.60 46.20 L 36.79 47.27 L 36.05 48.44 L 35.39 49.71 L 34.80 51.07 L 34.30 52.51 L 33.87 54.01 L 33.53 55.58 L 33.27 57.20 L 33.10 58.86 L 33.01 60.56 L 33.01 62.27 L 33.09 64.00 L 33.26 65.73 L 33.51 67.44 L 33.84 69.14 L 34.26 70.80 L 34.76 72.42 L 35.33 73.99 L 35.99 75.49 L 36.73 76.93 L 37.53 78.29 L 38.41 79.56 L 39.37 80.73 L 40.38 81.80 L 41.47 82.76 L 42.61 83.60 L 43.82 84.33 L 45.08 84.92 L 46.39 85.39 L 47.75 85.73 L 49.15 85.93 L 50.59 86.00 L 52.08 85.93 L 53.59 85.73 L 55.13 85.39 L 56.70 84.92 L 58.29 84.33 L 59.89 83.60 L 61.50 82.76 L 63.12 81.80 L 64.75 80.73 L 66.37 79.56 L 67.98 78.29 L 69.58 76.93 L 71.17 75.49 L 72.74 73.99 L 74.29 72.42 L 75.80 70.80 L 77.29 69.14 L 78.73 67.44 L 80.14 65.73 L 81.50 64.00 L 82.82 62.27 L 84.08 60.56 L 85.29 58.86 L 86.44 57.20 L 87.53 55.58 L 88.55 54.01 L 89.51 52.51 L 90.40 51.07 L 91.21 49.71 L 91.95 48.44 L 92.61 47.27 L 93.20 46.20 L 93.70 45.24 L 94.13 44.40 L 94.47 43.67 L 94.73 43.08 L 94.90 42.61 L 94.99 42.27 L 94.99 42.07 L 94.91 42.00 L 94.74 42.07 L 94.49 42.27 L 94.16 42.61 L 93.74 43.08 L 93.24 43.67 L 92.67 44.40 L 92.01 45.24 L 91.27 46.20 L 90.47 47.27 L 89.59 48.44 L 88.63 49.71 L 87.62 51.07 L 86.53 52.51 L 85.39 54.01 L 84.18 55.58 L 82.92 57.20 L 81.61 58.86 L 80.25 60.56 L 78.85 62.27 L 77.41 64.00 L 75.92 65.73 L 74.41 67.44 L 72.87 69.14 L 71.30 70.80 L 69.71 72.42 L 68.11 73.99 L 66.50 75.49 L 64.88 76.93 L 63.25 78.29 L 61.63 79.56 L 60.02 80.73 L 58.42 81.80 L 56.83 82.76 L 55.26 83.60 L 53.71 84.33 L 52.20 84.92 L 50.71 85.39 L 49.27 85.73 L 47.86 85.93 L 46.50 86.00 L 45.18 85.93 L 43.92 85.73 L 42.71 85.39 L 41.56 84.92 L 40.47 84.33 L 39.45 83.60 L 38.49 82.76 L 37.60 81.80 L 36.79 80.73 L 36.05 79.56 L 35.39 78.29 L 34.80 76.93 L 34.30 75.49 L 33.87 73.99 L 33.53 72.42 L 33.27 70.80 L 33.10 69.14 L 33.01 67.44 L 33.01 65.73 L 33.09 64.00 L 33.26 62.27 L 33.51 60.56 L 33.84 58.86 L 34.26 57.20 L 34.76 55.58 L 35.33 54.01 L 35.99 52.51 L 36.73 51.07 L 37.53 49.71 L 38.41 48.44 L 39.37 47.27 L 40.38 46.20 L 41.47 45.24 L 42.61 44.40 L 43.82 43.67 L 45.08 43.08 L 46.39 42.61 L 47.75 42.27 L 49.15 42.07 L 50.59 42.00 L 52.08 42.07 L 53.59 42.27 L 55.13 42.61 L 56.70 43.08 L 58.29 43.67 L 59.89 44.40 L 61.50 45.24 L 63.12 46.20 L 64.75 47.27 L 66.37 48.44 L 67.98 49.71 L 69.58 51.07 L 71.17 52.51 L 72.74 54.01 L 74.29 55.58 L 75.80 57.20 L 77.29 58.86 L 78.73 60.56 L 80.14 62.27 L 81.50 64.00" stroke="#d7deea" stroke-width="1.5" stroke-linecap="round" stroke-linejoin="round" opacity="0.9"/>
  <circle cx="81.50" cy="64.00" r="1.60" fill="#d7deea" opacity="0.55"/>
  <circle cx="81.50" cy="64.00" r="1.60" fill="#d7deea" opacity="0.55"/>
</svg>
